<?xml version="1.0" standalone="no"?>
<!DOCTYPE svg PUBLIC "-//W3C//DTD SVG 20010904//EN"
 "http://www.w3.org/TR/2001/REC-SVG-20010904/DTD/svg10.dtd">
<svg version="1.0" xmlns="http://www.w3.org/2000/svg"
 width="600.000000pt" height="450.000000pt" viewBox="0 0 600.000000 450.000000"
 preserveAspectRatio="xMidYMid meet">

<g transform="translate(0.000000,450.000000) scale(0.100000,-0.100000)"
fill="#000000" stroke="none">
<path d="M2730 4364 c-744 -98 -1368 -532 -1693 -1179 -152 -303 -219 -588
-219 -940 0 -348 66 -626 219 -930 129 -256 299 -474 513 -658 598 -514 1430
-673 2178 -416 821 282 1396 1021 1451 1864 26 391 -44 735 -219 1085 -367
731 -1136 1195 -1973 1189 -84 -1 -199 -7 -257 -15z m-562 -1129 c96 -29 200
-138 233 -245 6 -19 13 -80 16 -135 10 -196 -60 -383 -211 -568 -44 -54 -46
-60 -32 -76 9 -10 16 -22 16 -27 0 -4 27 -36 59 -69 39 -40 76 -92 109 -155
72 -136 72 -137 26 -177 -51 -45 -7 -25 54 25 31 24 42 40 39 53 -3 11 -1 17
4 13 32 -19 -41 -126 -106 -154 -22 -10 -96 -69 -163 -131 -68 -63 -135 -120
-148 -127 -23 -13 -30 -29 -36 -81 -4 -37 -23 -36 -67 4 l-39 36 -56 -70 c-31
-38 -56 -76 -56 -84 0 -20 -84 -32 -120 -17 -50 21 -49 112 3 156 39 33 123
147 131 178 3 13 22 36 42 51 77 59 91 132 58 293 -20 97 -27 106 -65 87 -45
-24 -48 -17 -4 10 22 13 34 25 28 25 -8 0 -13 13 -13 33 0 69 -18 101 -87 161
-115 99 -183 167 -183 184 0 10 -7 31 -16 47 -8 17 -16 44 -17 62 -2 18 -6 35
-10 40 -18 17 -47 98 -47 129 0 23 9 44 29 66 26 29 35 33 81 33 47 0 54 -3
89 -41 21 -23 44 -44 52 -47 11 -5 10 -9 -5 -21 -18 -15 -13 -42 6 -30 6 4 14
0 19 -7 6 -11 16 -6 43 20 42 41 60 90 53 138 -6 32 -3 36 23 46 31 12 40 32
18 40 -19 6 -48 -11 -48 -28 0 -27 -39 -16 -55 16 -12 22 -20 28 -29 20 -6 -5
-98 -26 -203 -45 -201 -38 -374 -48 -389 -24 -14 22 -13 58 2 58 9 0 12 -5 8
-11 -12 -20 177 -4 375 32 133 24 178 36 160 41 -15 5 -10 6 15 2 24 -3 46
-15 60 -31 21 -24 24 -24 64 -12 40 12 56 28 30 30 -10 0 -10 2 -1 5 7 3 9 12
6 21 -4 11 -2 14 8 11 8 -2 15 -18 17 -34 2 -16 13 -36 24 -45 13 -10 19 -23
15 -33 -4 -9 -8 -19 -9 -24 -2 -4 11 -9 27 -12 20 -4 29 -11 26 -21 -2 -8 -10
-39 -17 -69 -8 -30 -35 -95 -61 -145 l-46 -90 69 -70 c38 -39 86 -99 107 -134
l38 -63 -73 -72 c-40 -39 -89 -84 -108 -99 l-35 -28 34 18 c56 30 184 157 240
238 99 142 144 276 145 425 1 136 -32 225 -116 310 -148 151 -432 127 -663
-55 -77 -60 -93 -70 -102 -62 -9 9 51 77 120 135 197 169 425 235 615 177z
m-109 -264 c12 -8 12 -14 1 -41 -9 -22 -16 -28 -23 -21 -6 6 -19 11 -28 11 -9
0 -23 8 -30 17 -9 11 -10 14 -2 9 7 -4 22 2 35 13 25 24 27 24 47 12z m-386
-18 c-7 -2 -19 -2 -25 0 -7 3 -2 5 12 5 14 0 19 -2 13 -5z m177 -17 c0 -3 -4
-8 -10 -11 -5 -3 -10 -1 -10 4 0 6 5 11 10 11 6 0 10 -2 10 -4z m2655 -110
c62 -26 74 -89 26 -137 -23 -23 -38 -29 -71 -29 -33 0 -48 6 -71 29 -47 47
-32 108 35 137 39 17 40 17 81 0z m-3112 -19 c-44 -69 -98 -145 -101 -143 -10
11 79 156 96 156 8 0 10 -5 5 -13z m1550 -247 c-9 -105 -11 -713 -3 -855 l5
-90 -160 0 -160 0 5 110 c8 172 6 688 -3 815 l-8 115 166 0 166 0 -8 -95z
m665 86 c107 -14 200 -84 223 -168 18 -68 6 -178 -27 -239 -33 -61 -70 -93
-144 -128 -50 -24 -66 -26 -179 -26 l-124 0 8 -185 c4 -102 8 -207 9 -235 l1
-50 -160 0 -160 0 2 40 c11 190 14 755 4 861 -7 68 -10 128 -7 132 5 8 488 6
554 -2z m605 -106 c-11 -150 -10 -766 0 -777 13 -12 204 -8 270 6 32 7 61 11
63 8 3 -3 2 -39 -2 -81 l-7 -76 -313 0 c-173 0 -317 1 -321 3 -5 1 -7 18 -6
37 11 174 14 727 4 843 -6 76 -10 141 -7 145 2 4 77 7 166 7 l162 0 -9 -115z"/>
<path d="M2078 1803 c7 -3 16 -2 19 1 4 3 -2 6 -13 5 -11 0 -14 -3 -6 -6z"/>
<path d="M1977 1434 c-8 -9 11 -44 23 -44 6 0 10 11 10 25 0 23 -18 34 -33 19z"/>
<path d="M1685 1319 c-10 -30 19 -51 65 -47 29 2 34 7 32 23 -5 28 -14 35 -54
42 -31 5 -37 2 -43 -18z"/>
<path d="M4416 2799 c-32 -25 -36 -77 -8 -102 26 -24 85 -22 107 3 25 27 22
80 -6 102 -28 24 -60 23 -93 -3z m80 -14 c4 -8 1 -21 -5 -28 -8 -10 -7 -17 1
-25 20 -20 -1 -26 -22 -7 -18 16 -20 16 -20 2 0 -10 -4 -17 -10 -17 -5 0 -10
20 -10 45 0 43 1 45 30 45 18 0 33 -6 36 -15z"/>
<path d="M4450 2770 c0 -13 5 -18 14 -14 8 3 12 12 9 20 -8 21 -23 17 -23 -6z"/>
<path d="M3360 2339 l0 -192 37 6 c42 7 77 30 107 70 16 22 21 46 24 125 2 66
-1 105 -10 122 -17 32 -73 60 -120 60 l-38 0 0 -191z"/>
</g>
</svg>
